<?xml version="1.0" encoding="UTF-8"?>
<svg id="katman_2" data-name="katman 2" xmlns="http://www.w3.org/2000/svg" viewBox="0 0 1296.62 1568">
  <defs>
    <style>
      .cls-1 {
        fill: #272727;
        font-family: ClashDisplay-Bold, 'Clash Display';
        font-size: 139.18px;
        font-weight: 700;
      }

      .cls-2 {
        fill: #d95623;
      }
    </style>
  </defs>
  <g id="katman_1" data-name="katman 1">
    <text class="cls-1" transform="translate(61.4 1534.46)"><tspan x="0" y="0">LAGARİ THRUST</tspan></text>
    <path class="cls-2" d="M1092.33,0c-.91,18.26-6.41,36.65-11.22,54.29-97.68,358.02-330.94,653.89-549.7,944.84.49,2.39,6.95,1.9,8.9,1.84,12.79-.42,27.04-4.13,40.05-4.82,47.65-2.53,103.62,1.44,151.05,7.28,207.53,25.55,406.46,118.7,565.21,252.44v2.36c-62.18-30.99-122.52-65.5-186.62-92.62-203.5-86.1-438.62-127.39-655.79-70.11-60.59,67.31-126.48,129.6-195.58,188.13-26.12,22.13-53.48,42.83-79.14,65.49h-2.36l168.86-224.26c-121.17,28.19-231.57,86.88-345.99,133.37v-2.36c105.33-85.69,212.43-169.22,315.32-257.89,250.51-215.89,492.11-458.75,653.22-750.51,44.42-80.45,82.81-164.14,121.43-247.48h2.36ZM338.92,1032.79c16.87-4.67,33.53-10.06,50.73-13.61,22.89-4.72,47.99-5.05,68.93-16.09,116.46-140.75,237.14-278.83,342.33-428.6l68.22-108.26c-22.45,28.7-42.34,59.34-64.47,88.4-111.78,146.79-255.48,295.24-394.87,416.21-21.09,18.3-50.29,37.65-68.53,57.79-1.18,1.31-2.78,2.03-2.33,4.15ZM500.46,1004.21l46.28-65.85c-19.45,19.17-36.69,42.11-50.76,65.52.48,1.14,3.65.78,4.48.33ZM908.11,1065.86c-121.54-31.16-248.4-49.47-373.38-27.97-5.84,1-44.69,8.32-45.83,10.85-.19.43-.43,2.97.59,2.95,23.81-1.9,47.21-7.88,70.99-10.49,87.07-9.55,187.2-5.61,273.26,11.04,21.38,4.14,50.08,14.93,70.6,15.72,1.89.07,3.22.09,3.77-2.1ZM422.75,1056.41c-48.26,9.08-98.21,24.56-142.5,45.82-7.65,3.67-16.23,8.01-22.82,13.18,42.46-10.16,82.19-28.62,123.38-42.5,13.23-4.46,26.61-5.89,39.04-12.91,1.61-.91,3.43-.98,2.9-3.58ZM409.77,1103.63c-3.29-.32-5.9,2.21-8.28,4.11-21.32,17.02-51.04,54.53-68.45,76.76-1.68,2.14-4.37,4.96-4.74,7.64,29.08-27.62,57.55-56.23,81.47-88.51Z"/>
  </g>
</svg>